{"title":"Mega Python vs. Gatoroid (2011) [XviD - Italian English Ac3 5.1-","uid":10796928,"size":1411605264,"categoryP":"video","categoryS":"movies","magnet":"?xt=urn:btih:620c19c396e6a721b90e2531dd4b815aa88bd233&amp;dn=Mega+Python+vs.+Gatoroid+%282011%29+%5BXviD+-+Italian+English+Ac3+5.1-&amp;tr=udp%3A%2F%2Ftracker.openbittorrent.com%3A80&amp;tr=udp%3A%2F%2Fopen.demonii.com%3A1337&amp;tr=udp%3A%2F%2Ftracker.coppersurfer.tk%3A6969&amp;tr=udp%3A%2F%2Fexodus.desync.com%3A6969","seeders":1,"leechers":0,"uploader":"robbyrs4","files":2,"time":1408302879,"description":"Mega Python vs. Gatoroid (2011) [XviD - Italian English Ac3 5.1- Sub Eng] MIRCrew\n\n\n\n\n[center][color=red][b][img]http://s19.postimg.org/mqmhlwtlf/Mircrew_original_red_skull.png[/img]\n\n[u]NO FOUND ONLY ORIGINAL RELEASE[/u]\n\nMega Python vs. Gatoroid (2011)\n\n[img]http://s19.postimg.org/am3qm1f83/mega.jpg[/img]\n\n\n\n[URL=http://www.imdb.com/title/tt1680138/][IMG]http://www.userlogos.org/files/logos/Sucka/imdb_new.png[/IMG][/URL]  \n\n[img]http://imageshack.us/a/img534/6946/zcu.gif[/img]\n\nTitolo originale \tMega Python vs. Gatoroid\nLingua originale \tinglese\nPaese di produzione \tUSA\nAnno \t2011\nDurata \t90 min\nColore \tcolore\nAudio \tsonoro\nGenere \tdrammatico, fantascienza, orrore\nRegia \tMary Lambert\nSceneggiatura \tNaomi Selfman\nProduttore \tDavid Michael Latt, David Rimawi, Paul Bales, Thomas Vitale\nCasa di produzione \tThe Asylum\nDistribuzione (Italia) \tMinerva Pictures\nMusiche \tChris Ridenhour\n\n\n[img]http://imageshack.us/a/img4/8946/u96.gif[/img]\n\n\n\n\n    Debbie Gibson: Dr. Nikki Riley\n    Tiffany: Ranger Terry O'Hara\n    A Martinez: Dr. Diego Ortiz\n    Kathryn Joosten: Angie Polk\n    Kevin M. Horton: RJ Cupelli\n    Micky Dolenz: se stesso\n    Carey Van Dyke: Justin\n    Arden Cho: Gia\n    Chris Neville: Manny Polk\n    Patrick Hancock: Ben\n\n\n[img]http://imageshack.us/a/img844/6546/cupz.gif[/img]\n\nUn gruppo di animalisti, capeggiati dalla dottoressa Nikki Riley (Debbie Gibson), Gia (Arden Cho) e Ben (Patrick Hancock), irrompono in un laboratorio e rubano dozzine di pitoni esotici, per poi liberarli in una palude di Everglades in Florida. Tale azione, inavvertitamente causa una crescita negli esemplari di serpenti che uccidono 72 alligatori in pochi giorni, minacciano quindi l'ecosistema. A causa della minaccia, la ranger Terry O'Hara (Tiffany) rilascia il permesso ai cacciatori locali, di sterminare i pitoni..........\n\n[img]http://imageshack.us/a/img202/6180/4e6.gif[/img]\n\nThere's a crisis in the Florida Everglades as giant pythons are threatening the alligator population. ...\n\n &lt;a href=&quot;\nhttp://s19.postimg.org/bguvltcgj/vlcsnap_2014_08_17_18h53m20s36.png&quot; rel=&quot;nofollow&quot; target=&quot;_NEW&quot;&gt;\nhttp://s19.postimg.org/bguvltcgj/vlcsnap_2014_08_17_18h53m20s36.png&lt;/a&gt;\n &lt;a href=&quot;\nhttp://s19.postimg.org/i61f1txsj/vlcsnap_2014_08_17_18h53m28s172.png&quot; rel=&quot;nofollow&quot; target=&quot;_NEW&quot;&gt;\nhttp://s19.postimg.org/i61f1txsj/vlcsnap_2014_08_17_18h53m28s172.png&lt;/a&gt;\n &lt;a href=&quot;\nhttp://s19.postimg.org/c2juhx7ir/vlcsnap_2014_08_17_18h53m32s222.png&quot; rel=&quot;nofollow&quot; target=&quot;_NEW&quot;&gt;\nhttp://s19.postimg.org/c2juhx7ir/vlcsnap_2014_08_17_18h53m32s222.png&lt;/a&gt;\n &lt;a href=&quot;\nhttp://s19.postimg.org/setw7nlub/vlcsnap_2014_08_17_18h54m31s43.png&quot; rel=&quot;nofollow&quot; target=&quot;_NEW&quot;&gt;\nhttp://s19.postimg.org/setw7nlub/vlcsnap_2014_08_17_18h54m31s43.png&lt;/a&gt;\n\n[img]http://imageshack.us/a/img571/2166/an4p.gif[/img]\n\n\n\n[spoiler]\nGeneral\nComplete name                            : Mega Python vs Gatoroid (2011).ita.eng.sub.eng.MIRCrewMega Python vs Gatoroid (2011).ita.eng.sub.eng.MIRCrew.avi\nFormat                                   : AVI\nFormat/Info                              : Audio Video Interleave\nFile size                                : 1.31 GiB\nDuration                                 : 1h 27mn\nOverall bit rate                         : 2 154 Kbps\nWriting application                      : VirtualDubMod 1.5.10.2 (build 2540/release)\nWriting library                          : VirtualDubMod build 2540/release\n\nVideo\nID                                       : 0\nFormat                                   : MPEG-4 Visual\nFormat profile                           : Advanced Simple@L4\nFormat settings, BVOP                    : 2\nFormat settings, QPel                    : No\nFormat settings, GMC                     : No warppoints\nFormat settings, Matrix                  : Default (H.263)\nCodec ID                                 : DIVX\nCodec ID/Info                            : Project Mayo\nCodec ID/Hint                            : DivX 4\nDuration                                 : 1h 27mn\nBit rate                                 : 1 500 Kbps\nWidth                                    : 720 pixels\nHeight                                   : 404 pixels\nDisplay aspect ratio                     : 16:9\nFrame rate                               : 25.000 fps\nColor space                              : YUV\nChroma subsampling                       : 4:2:0\nBit depth                                : 8 bits\nScan type                                : Progressive\nCompression mode                         : Lossy\nBits/(Pixel*Frame)                       : 0.206\nStream size                              : 936 MiB (70%)\nWriting library                          : XviD 64\n\nAudio #1\nID                                       : 1\nFormat                                   : AC-3\nFormat/Info                              : Audio Coding 3\nMode extension                           : CM (complete main)\nCodec ID                                 : 2000\nDuration                                 : 1h 27mn\nBit rate mode                            : Constant\nBit rate                                 : 256 Kbps\nChannel(s)                               : 2 channels\nChannel positions                        : Front: L R\nSampling rate                            : 48.0 KHz\nBit depth                                : 16 bits\nCompression mode                         : Lossy\nDelay relative to video                  : 750ms\nStream size                              : 160 MiB (12%)\nAlignment                                : Split accross interleaves\nInterleave, duration                     : 40 ms (1.00 video frame)\nInterleave, preload duration             : 500 ms\n\nAudio #2\nID                                       : 2\nFormat                                   : AC-3\nFormat/Info                              : Audio Coding 3\nMode extension                           : CM (complete main)\nCodec ID                                 : 2000\nDuration                                 : 1h 27mn\nBit rate mode                            : Constant\nBit rate                                 : 384 Kbps\nChannel(s)                               : 6 channels\nChannel positions                        : Front: L C R, Side: L R, LFE\nSampling rate                            : 48.0 KHz\nBit depth                                : 16 bits\nCompression mode                         : Lossy\nStream size                              : 240 MiB (18%)\nAlignment                                : Split accross interleaves\nInterleave, duration                     : 40 ms (1.00 video frame)\nInterleave, preload duration             : 500 ms\n\n\n\n\n\n[/spoiler]\n\n[/color][/b][/center]","torrent":{"xt":"urn:btih:620c19c396e6a721b90e2531dd4b815aa88bd233","amp;dn":"Mega+Python+vs.+Gatoroid+%282011%29+%5BXviD+-+Italian+English+Ac3+5.1-","amp;tr":["udp%3A%2F%2Ftracker.openbittorrent.com%3A80","udp%3A%2F%2Fopen.demonii.com%3A1337","udp%3A%2F%2Ftracker.coppersurfer.tk%3A6969","udp%3A%2F%2Fexodus.desync.com%3A6969"],"infoHash":"620c19c396e6a721b90e2531dd4b815aa88bd233","infoHashBuffer":{"type":"Buffer","data":[98,12,25,195,150,230,167,33,185,14,37,49,221,75,129,90,168,139,210,51]},"announce":[],"urlList":[]}}